Results
version=1
nRows=4
nColumns=143
inDegrees=yes
endheader
time	/jointset/groundthorax/r_z/value	/jointset/groundthorax/r_z/speed	/jointset/sternoclavicular/sternoclavicular_r2/value	/jointset/sternoclavicular/sternoclavicular_r2/speed	/jointset/sternoclavicular/sternoclavicular_r3/value	/jointset/sternoclavicular/sternoclavicular_r3/speed	/jointset/unrotscap/unrotscap_r3/value	/jointset/unrotscap/unrotscap_r3/speed	/jointset/unrotscap/unrotscap_r2/value	/jointset/unrotscap/unrotscap_r2/speed	/jointset/acromioclavicular/acromioclavicular_r2/value	/jointset/acromioclavicular/acromioclavicular_r2/speed	/jointset/acromioclavicular/acromioclavicular_r3/value	/jointset/acromioclavicular/acromioclavicular_r3/speed	/jointset/acromioclavicular/acromioclavicular_r1/value	/jointset/acromioclavicular/acromioclavicular_r1/speed	/jointset/unrothum/unrothum_r1/value	/jointset/unrothum/unrothum_r1/speed	/jointset/unrothum/unrothum_r3/value	/jointset/unrothum/unrothum_r3/speed	/jointset/unrothum/unrothum_r2/value	/jointset/unrothum/unrothum_r2/speed	/jointset/shoulder0/elv_angle/value	/jointset/shoulder0/elv_angle/speed	/jointset/shoulder1/shoulder_elv/value	/jointset/shoulder1/shoulder_elv/speed	/jointset/shoulder1/shoulder1_r2/value	/jointset/shoulder1/shoulder1_r2/speed	/jointset/shoulder2/shoulder_rot/value	/jointset/shoulder2/shoulder_rot/speed	/jointset/elbow/elbow_flexion/value	/jointset/elbow/elbow_flexion/speed	/jointset/radioulnar/pro_sup/value	/jointset/radioulnar/pro_sup/speed	/jointset/radiocarpal/deviation/value	/jointset/radiocarpal/deviation/speed	/jointset/radiocarpal/flexion/value	/jointset/radiocarpal/flexion/speed	/jointset/wrist_hand/wrist_hand_r1/value	/jointset/wrist_hand/wrist_hand_r1/speed	/jointset/wrist_hand/wrist_hand_r3/value	/jointset/wrist_hand/wrist_hand_r3/speed	/forceset/DELT1/activation	/forceset/DELT1/fiber_length	/forceset/DELT2/activation	/forceset/DELT2/fiber_length	/forceset/DELT3/activation	/forceset/DELT3/fiber_length	/forceset/SUPSP/activation	/forceset/SUPSP/fiber_length	/forceset/INFSP/activation	/forceset/INFSP/fiber_length	/forceset/SUBSC/activation	/forceset/SUBSC/fiber_length	/forceset/TMIN/activation	/forceset/TMIN/fiber_length	/forceset/TMAJ/activation	/forceset/TMAJ/fiber_length	/forceset/PECM1/activation	/forceset/PECM1/fiber_length	/forceset/PECM2/activation	/forceset/PECM2/fiber_length	/forceset/PECM3/activation	/forceset/PECM3/fiber_length	/forceset/LAT1/activation	/forceset/LAT1/fiber_length	/forceset/LAT2/activation	/forceset/LAT2/fiber_length	/forceset/LAT3/activation	/forceset/LAT3/fiber_length	/forceset/CORB/activation	/forceset/CORB/fiber_length	/forceset/TRIlong/activation	/forceset/TRIlong/fiber_length	/forceset/TRIlat/activation	/forceset/TRIlat/fiber_length	/forceset/TRImed/activation	/forceset/TRImed/fiber_length	/forceset/ANC/activation	/forceset/ANC/fiber_length	/forceset/SUP/activation	/forceset/SUP/fiber_length	/forceset/BIClong/activation	/forceset/BIClong/fiber_length	/forceset/BICshort/activation	/forceset/BICshort/fiber_length	/forceset/BRA/activation	/forceset/BRA/fiber_length	/forceset/BRD/activation	/forceset/BRD/fiber_length	/forceset/ECRL/activation	/forceset/ECRL/fiber_length	/forceset/ECRB/activation	/forceset/ECRB/fiber_length	/forceset/ECU/activation	/forceset/ECU/fiber_length	/forceset/FCR/activation	/forceset/FCR/fiber_length	/forceset/FCU/activation	/forceset/FCU/fiber_length	/forceset/PL/activation	/forceset/PL/fiber_length	/forceset/PT/activation	/forceset/PT/fiber_length	/forceset/PQ/activation	/forceset/PQ/fiber_length	/forceset/FDSL/activation	/forceset/FDSL/fiber_length	/forceset/FDSR/activation	/forceset/FDSR/fiber_length	/forceset/FDSM/activation	/forceset/FDSM/fiber_length	/forceset/FDSI/activation	/forceset/FDSI/fiber_length	/forceset/FDPL/activation	/forceset/FDPL/fiber_length	/forceset/FDPR/activation	/forceset/FDPR/fiber_length	/forceset/FDPM/activation	/forceset/FDPM/fiber_length	/forceset/FDPI/activation	/forceset/FDPI/fiber_length	/forceset/EDCL/activation	/forceset/EDCL/fiber_length	/forceset/EDCR/activation	/forceset/EDCR/fiber_length	/forceset/EDCM/activation	/forceset/EDCM/fiber_length	/forceset/EDCI/activation	/forceset/EDCI/fiber_length	/forceset/EDM/activation	/forceset/EDM/fiber_length	/forceset/EIP/activation	/forceset/EIP/fiber_length	/forceset/EPL/activation	/forceset/EPL/fiber_length	/forceset/EPB/activation	/forceset/EPB/fiber_length	/forceset/FPL/activation	/forceset/FPL/fiber_length	/forceset/APL/activation	/forceset/APL/fiber_length
      0.50485712	     10.00000028	      0.00000000	     -0.87730139	     18.35649886	      0.37158346	     -7.77494654	     -0.37158346	      7.77494654	      0.87730139	    -18.35649886	     -0.17763569	      3.71681762	      1.43558913	    -30.03801259	      0.64528743	    -13.50187993	     -0.64528743	     13.50187993	     -1.43558913	     30.03801259	      0.17763569	     -3.71681762	     -5.77358289	    -20.65349096	      3.62520423	    -75.85313108	      5.77358289	     20.65349096	    -11.48724081	   -104.06100287	      7.25036992	     25.31582925	    -10.63779798	    -63.54332506	      0.12786097	     -1.44101677	     -0.37729888	      4.25663019	      9.17556740	    -94.76968744	    -10.80881664	    121.94347233	      0.00000000	      0.12378942	      0.00000000	      0.11714395	      0.00000000	      0.12086190	      0.00000000	      0.07039760	      0.00000000	      0.08084184	      0.00000000	      0.08459768	      0.00000000	      0.07047218	      0.00000000	      0.13063142	      0.00000000	      0.13743952	      0.00000000	      0.11640678	      0.00000000	      0.09178774	      0.00000000	      0.17322489	      0.00000000	      0.13850453	      0.00000000	      0.20423821	      0.00000000	      0.08082063	      0.00000000	      0.14665766	      0.00000000	      0.07648830	      0.00000000	      0.07146829	      0.00000000	      0.00599306	      0.00000000	      0.03646796	      0.00000000	      0.15871390	      0.00000000	      0.17676254	      0.00000000	      0.09243236	      0.00000000	      0.19903604	      0.00000000	      0.09653591	      0.00000000	      0.06966722	      0.00000000	      0.07517822	      0.00000000	      0.07633870	      0.00000000	      0.05210028	      0.00000000	      0.07900497	      0.00000000	      0.06119093	      0.00000000	      0.02791603	      0.00000000	      0.05712548	      0.00000000	      0.07923920	      0.00000000	      0.08041756	      0.00000000	      0.09312063	      0.00000000	      0.07928313	      0.00000000	      0.08362683	      0.00000000	      0.08058102	      0.00000000	      0.08127309	      0.00000000	      0.08211125	      0.00000000	      0.07239797	      0.00000000	      0.48096735	      0.00000000	      0.07769570	      0.00000000	      0.08077107	      0.00000000	      0.07326440	      0.00000000	      0.06724990	      0.00000000	      0.07866889	      0.00000000	      0.06902509	      0.00000000	      0.08288136
      0.50512922	     10.00000028	      0.00000000	     -0.87230804	     18.34662056	      0.36946852	     -7.77076255	     -0.36946852	      7.77076255	      0.87230804	    -18.34662056	     -0.17662463	      3.71481746	      1.42741817	    -30.02184803	      0.64161464	    -13.49461407	     -0.64161464	     13.49461407	     -1.42741817	     30.02184803	      0.17662463	     -3.71481746	     -5.77920298	    -20.65643001	      3.60457061	    -75.81231172	      5.77920298	     20.65643001	    -11.51552119	   -103.81127920	      7.25725850	     25.31780302	    -10.65506844	    -63.40031714	      0.12747224	     -1.41635215	     -0.37613809	      4.27561444	      9.14999487	    -93.19923889	    -10.77556250	    122.48733100	      0.00000000	      0.12378942	      0.00000000	      0.11715649	      0.00000000	      0.12086542	      0.00000000	      0.07040160	      0.00000000	      0.08084184	      0.00000000	      0.08461019	      0.00000000	      0.07047218	      0.00000000	      0.13063142	      0.00000000	      0.13743952	      0.00000000	      0.11640678	      0.00000000	      0.09178774	      0.00000000	      0.17322489	      0.00000000	      0.13850453	      0.00000000	      0.20423821	      0.00000000	      0.08082063	      0.00000000	      0.14665766	      0.00000000	      0.07648830	      0.00000000	      0.07146829	      0.00000000	      0.00599306	      0.00000000	      0.03646796	      0.00000000	      0.15871390	      0.00000000	      0.17676254	      0.00000000	      0.09243236	      0.00000000	      0.19903604	      0.00000000	      0.09653591	      0.00000000	      0.06966722	      0.00000000	      0.07517822	      0.00000000	      0.07633870	      0.00000000	      0.05210028	      0.00000000	      0.07900497	      0.00000000	      0.06119268	      0.00000000	      0.02791813	      0.00000000	      0.05712548	      0.00000000	      0.07923920	      0.00000000	      0.08041756	      0.00000000	      0.09312063	      0.00000000	      0.07928313	      0.00000000	      0.08362683	      0.00000000	      0.08058102	      0.00000000	      0.08127309	      0.00000000	      0.08211125	      0.00000000	      0.07239797	      0.00000000	      0.48096735	      0.00000000	      0.07769570	      0.00000000	      0.08077107	      0.00000000	      0.07326440	      0.00000000	      0.06724990	      0.00000000	      0.07866889	      0.00000000	      0.06902509	      0.00000000	      0.08288136
      0.50538626	     10.00000028	      0.00000000	     -0.86759336	     18.33726373	      0.36747160	     -7.76679944	     -0.36747160	      7.76679944	      0.86759336	    -18.33726373	     -0.17567001	      3.71292290	      1.41970320	    -30.00653681	      0.63814682	    -13.48773178	     -0.63814682	     13.48773178	     -1.41970320	     30.00653681	      0.17567001	     -3.71292290	     -5.78451295	    -20.65918151	      3.58508847	    -75.77364724	      5.78451295	     20.65918151	    -11.54217483	   -103.57403106	      7.26376635	     25.31795477	    -10.67134808	    -63.27138363	      0.12711116	     -1.39318377	     -0.37503677	      4.29343505	      9.12622865	    -91.72188967	    -10.74401218	    122.99785412	      0.00000000	      0.12378942	      0.00000000	      0.11716832	      0.00000000	      0.12086875	      0.00000000	      0.07040539	      0.00000000	      0.08084184	      0.00000000	      0.08462200	      0.00000000	      0.07047218	      0.00000000	      0.13063142	      0.00000000	      0.13743952	      0.00000000	      0.11640678	      0.00000000	      0.09178774	      0.00000000	      0.17322489	      0.00000000	      0.13850453	      0.00000000	      0.20423821	      0.00000000	      0.08082063	      0.00000000	      0.14665766	      0.00000000	      0.07648830	      0.00000000	      0.07146829	      0.00000000	      0.00599306	      0.00000000	      0.03646796	      0.00000000	      0.15871390	      0.00000000	      0.17676254	      0.00000000	      0.09243236	      0.00000000	      0.19903604	      0.00000000	      0.09653591	      0.00000000	      0.06966722	      0.00000000	      0.07517822	      0.00000000	      0.07633870	      0.00000000	      0.05210028	      0.00000000	      0.07900497	      0.00000000	      0.06119434	      0.00000000	      0.02791984	      0.00000000	      0.05712548	      0.00000000	      0.07923920	      0.00000000	      0.08041756	      0.00000000	      0.09312063	      0.00000000	      0.07928313	      0.00000000	      0.08362683	      0.00000000	      0.08058102	      0.00000000	      0.08127309	      0.00000000	      0.08211125	      0.00000000	      0.07239797	      0.00000000	      0.48096735	      0.00000000	      0.07769570	      0.00000000	      0.08077107	      0.00000000	      0.07326440	      0.00000000	      0.06724990	      0.00000000	      0.07866889	      0.00000000	      0.06902509	      0.00000000	      0.08288136
      0.50558697	     10.00000028	      0.00000000	     -0.86391373	     18.32993752	      0.36591308	     -7.76369641	     -0.36591308	      7.76369641	      0.86391373	    -18.32993752	     -0.17492496	      3.71143949	      1.41368197	    -29.99454842	      0.63544032	    -13.48234309	     -0.63544032	     13.48234309	     -1.41368197	     29.99454842	      0.17492496	     -3.71143949	     -5.78865954	    -20.66131313	      3.56988345	    -75.74337370	      5.78865954	     20.66131313	    -11.56294396	   -103.38899983	      7.26884770	     25.31721751	    -10.68403616	    -63.16302223	      0.12683335	     -1.37513711	     -0.37417368	      4.30727274	      9.10793536	    -90.56959834	    -10.71928622	    123.39427471	      0.00000000	      0.12378942	      0.00000000	      0.11717755	      0.00000000	      0.12087136	      0.00000000	      0.07040835	      0.00000000	      0.08084184	      0.00000000	      0.08463120	      0.00000000	      0.07047218	      0.00000000	      0.13063142	      0.00000000	      0.13743952	      0.00000000	      0.11640678	      0.00000000	      0.09178774	      0.00000000	      0.17322489	      0.00000000	      0.13850453	      0.00000000	      0.20423821	      0.00000000	      0.08082063	      0.00000000	      0.14665766	      0.00000000	      0.07648830	      0.00000000	      0.07146829	      0.00000000	      0.00599306	      0.00000000	      0.03646796	      0.00000000	      0.15871390	      0.00000000	      0.17676254	      0.00000000	      0.09243236	      0.00000000	      0.19903604	      0.00000000	      0.09653591	      0.00000000	      0.06966722	      0.00000000	      0.07517822	      0.00000000	      0.07633870	      0.00000000	      0.05210028	      0.00000000	      0.07900497	      0.00000000	      0.06119563	      0.00000000	      0.02792153	      0.00000000	      0.05712548	      0.00000000	      0.07923920	      0.00000000	      0.08041756	      0.00000000	      0.09312063	      0.00000000	      0.07928313	      0.00000000	      0.08362683	      0.00000000	      0.08058102	      0.00000000	      0.08127309	      0.00000000	      0.08211125	      0.00000000	      0.07239797	      0.00000000	      0.48096735	      0.00000000	      0.07769570	      0.00000000	      0.08077107	      0.00000000	      0.07326440	      0.00000000	      0.06724990	      0.00000000	      0.07866889	      0.00000000	      0.06902509	      0.00000000	      0.08288136
